<svg xmlns="http://www.w3.org/2000/svg" viewBox="53.1 58.12 1797.96 388.07" preserveAspectRatio="xMidYMid meet" role="img" aria-label="Anamata.ai">
  <title>Anamata.ai</title>
  <path style="fill:#041524" d="M 558.8832 110.35242 C 549.58792 110.36648 548.06953 110.70401 547.61953 111.82898 C 547.31953 112.72898 547.31914 148.7295 547.71914 191.72938 C 548.21914 246.4292 548.12031 270.22977 547.42031 270.62977 C 546.82031 271.02977 526.21947 255.82853 501.61953 236.92859 C 476.91962 218.02865 440.41869 190.02971 420.31875 174.62977 C 407.49372 164.82042 401.5508 160.25422 394.84219 155.10242 L 394.84219 213.26063 C 418.16782 230.88773 479.56986 277.79128 545.81875 328.62977 C 565.01869 343.42971 583.41953 357.52823 586.61953 360.0282 C 589.81953 362.4282 592.61875 364.32977 592.81875 364.12977 C 593.01875 363.82977 593.31992 306.82917 593.51992 237.22938 L 593.81875 110.72938 L 571.01992 110.42859 C 565.94495 110.37859 561.98164 110.34773 558.8832 110.35242 z M 383.49648 315.37977 L 383.49648 364.72938 L 383.61953 364.72938 L 383.49648 315.37977 z" />
  <path style="fill:#041524" d="m 896.01961,111.02914 c -0.3,0.4 -0.4,57.6 -0.3,127.2 l 0.1,126.5 h 22.9 22.8 l -0.1,-80.3 c -0.2,-53.7 0.1,-80.2 0.8,-80.2 1,0 40.6,30 66.39999,50.2 7.5,5.9 14.2,10.8 14.8,10.8 0.6,0 12.6,-8.9 26.7,-19.8 57,-43.9 55.1,-42.5 55.7,-39.9 0.4,1.3 0.5,37.7 0.3,80.8 l -0.3,78.4 22.8,0.3 c 17.8,0.2 22.7,0 22.7,-1 -0.1,-0.7 0,-57.8 0.2,-126.8 0.1,-69 -0.1,-125.7 -0.5,-126 -0.6,-0.5 -4.9,2.7 -23.2,17 -11.4,8.9 -18.1,14.1 -62.9,48.4 -21.4,16.5 -39.8,30.1 -40.7,30.3 -1.8,0.5 -11.5,-6.7 -84.79999,-63.1 -15,-11.6 -30.9,-23.9 -35.2,-27.3 -4.3,-3.5 -8,-6 -8.2,-5.5 z" />
  <path style="fill:#041524" d="m 1381.7196,111.52914 c -0.2,0.7 -0.3,10.9 -0.2,22.7 l 0.3,21.5 52,0.5 52,0.5 0.2,104 0.2,104 h 22.8 22.8 v -104 -104 l 52.3,-0.3 52.2,-0.2 -0.2,-22.8 -0.3,-22.7 -126.8,-0.3 c -102.2,-0.2 -126.9,0 -127.3,1.1 z" />
  <path style="fill:#2c548c" d="m 169.51961,141.42914 c -18.2,36.2 -42,82.9 -57.9,113.8 -6.4,12.4 -15.400004,29.9 -20.100004,39 -4.6,9.1 -11.8,23 -16,31 -4.1,8 -9.9,19.2 -12.9,24.9 -2.9,5.7 -5.8,11 -6.4,11.7 -2.5,3 0.3,3.4 25.6,3.4 h 25.300004 l 11.3,-22.3 c 6.2,-12.2 20,-39.3 30.6,-60.2 10.6,-20.9 23,-45.3 27.6,-54.2 4.5,-9 8.7,-16.3 9.2,-16.3 0.6,0 5.6,9.1 11.2,20.3 5.7,11.1 18.4,36.2 28.4,55.7 9.9,19.5 22.8,44.8 28.5,56.3 l 10.6,20.7 h 25.4 c 17.9,0 25.4,-0.3 25.4,-1.1 0,-0.6 -3.1,-7 -6.9,-14.3 -21.8,-41.9 -74.2,-144.3 -101.4,-198.3 -11.1,-22.2 -20.7,-40.3 -21.2,-40.3 -0.6,0 -7.9,13.6 -16.3,30.2 z" />
  <path style="fill:#041524" d="m 724.51961,147.52914 c -35.6,70.8 -95,186.6 -108.3,211.4 -1.5,2.8 -2.5,5.4 -2.2,5.7 0.4,0.3 12,0.6 25.9,0.6 h 25.2 l 14.5,-28.8 c 8,-15.8 22.3,-43.8 31.6,-62.2 9.4,-18.4 20.4,-39.9 24.4,-47.7 3.9,-7.9 7.7,-14.3 8.2,-14.3 0.6,0 5.6,9.1 11.2,20.3 5.7,11.1 18.4,36.2 28.4,55.7 9.9,19.5 22.8,44.8 28.5,56.3 l 10.6,20.7 h 25.4 c 17.8,0 25.4,-0.3 25.4,-1.1 0,-0.6 -3.3,-7.5 -7.4,-15.3 -25.1,-48.2 -75.4,-146.5 -101.4,-198.3 -10.8,-21.6 -20.1,-39.3 -20.7,-39.3 -0.5,0 -9.2,16.3 -19.3,36.3 z" />
  <path style="fill:#041524" d="m 1283.0196,150.62914 c -33.7,66.7 -107.1,209.9 -108.8,212.2 -0.5,0.6 -0.6,1.4 -0.2,1.7 0.3,0.4 12,0.7 25.9,0.7 h 25.2 l 13.5,-26.8 c 7.5,-14.7 21.9,-43.1 32.1,-63.2 10.3,-20.1 21.7,-42.5 25.4,-49.7 3.7,-7.3 7.2,-13.3 7.7,-13.3 0.6,0 5.6,9.1 11.2,20.3 5.7,11.1 23.1,45.4 38.7,76.2 l 28.4,56 24.8,0.3 c 13.7,0.1 25.4,0 26.1,-0.2 1,-0.4 0.7,-1.7 -1.1,-4.8 -1.3,-2.4 -6.3,-12 -11.1,-21.3 -4.8,-9.4 -11.6,-22.4 -15,-29 -6.7,-13 -23.1,-44.8 -45.5,-88.5 -7.7,-15.1 -22.5,-44.2 -32.7,-64.5 -23.3,-46.2 -22.6,-44.8 -23.8,-45.2 -0.5,-0.1 -9.9,17.4 -20.8,39.1 z" />
  <path style="fill:#041524" d="m 1699.1196,146.52914 c -9.7,19.3 -24.3,48 -32.3,63.7 -8.1,15.7 -20.5,40 -27.7,54 -7.2,14 -15.9,30.9 -19.3,37.5 -3.4,6.6 -10.6,20.5 -16,31 -5.4,10.4 -11.3,21.8 -13.1,25.2 -1.8,3.4 -3,6.4 -2.6,6.7 0.3,0.3 11.9,0.6 25.7,0.6 h 25.3 l 12.3,-24.3 c 6.7,-13.3 20.5,-40.4 30.6,-60.2 10.1,-19.8 22,-43.3 26.6,-52.2 4.5,-9 8.7,-16.3 9.2,-16.3 0.6,0 6.3,10.5 12.7,23.3 6.5,12.7 23.9,47 38.7,76.2 l 26.9,53 24.8,0.3 c 13.7,0.1 25.4,0 26.1,-0.2 1.2,-0.5 0.3,-2.5 -17.2,-36.1 -12,-23.1 -21.1,-40.9 -34,-66 -6.5,-12.7 -14.4,-28 -17.5,-34 -3.2,-6.1 -17.1,-33.5 -31,-61 -28.7,-56.6 -28.3,-55.8 -29.5,-56.2 -0.6,-0.2 -9,15.6 -18.7,35 z" />
  <path style="fill:#2c548c" d="M 338.52969 112.35828 C 338.13843 112.35828 337.89027 133.17637 337.78164 169.00281 L 383.50625 203.97742 L 383.50625 146.39734 C 376.24128 140.78838 365.09001 132.28834 354.6293 124.15711 C 346.32931 117.65713 339.12969 112.35828 338.52969 112.35828 z M 337.73281 182.83875 C 337.70627 198.93011 337.70286 217.35465 337.72891 238.5575 L 337.82852 364.85828 L 360.72891 364.85828 L 383.50625 364.85828 L 383.50625 315.50867 L 383.43008 284.95789 C 383.41098 279.62802 383.51625 282.13107 383.50625 277.37781 L 383.50625 217.84852 L 337.73281 182.83875 z" />
</svg>
